{"title":"Les.Cousins.1959.720p.BluRay.x264-CiNEFiLE.mkv","uid":6664189,"size":4692683001,"categoryP":"video","categoryS":"hd___movies","magnet":"?xt=urn:btih:3aa1619093eea1ccba9b06e24cfcc4f2f80bb27e&amp;dn=Les.Cousins.1959.720p.BluRay.x264-CiNEFiLE.mkv&amp;tr=udp%3A%2F%2Ftracker.openbittorrent.com%3A80&amp;tr=udp%3A%2F%2Fopen.demonii.com%3A1337&amp;tr=udp%3A%2F%2Ftracker.coppersurfer.tk%3A6969&amp;tr=udp%3A%2F%2Fexodus.desync.com%3A6969","seeders":0,"leechers":4,"uploader":"mfccorrea","files":1,"time":1315625025,"description":"When two cousins, one essentially a country bumpkin and the other a slick city boy, begin studying law together in Paris and go into competition for the same girl, it is a battle to the death. This survival of the fittest pits the two young man against each other and brings out the best and the worst in each of them. Chabrol's directorial effort is almost parable-like in its depiction of might versus right.\n\n   General\n      Complete name : Les.Cousins.1959.720p.BluRay.x264-CiNEFiLE.mkv\n      Format : Matroska\n      File size : 4.37 GiB\n      Duration : 1h 49mn\n      Overall bit rate : 5 699 Kbps\n      Encoded date : UTC 2011-09-07 20:49:58\n      Writing application : mkvmerge v4.9.1 ('Ich will') built on Jul 11 2011 23:53:15\n      Writing library : libebml v1.2.1 + libmatroska v1.1.1\n   Video #1\n      ID : 1\n      Format : AVC\n      Format/Info : Advanced Video Codec\n      Format profile : &lt;a class=&quot;__cf_email__&quot; href=&quot;/cdn-cgi/l/email-protection&quot; data-cfemail=&quot;571f3e303f171b637966&quot;&gt;[email&amp;#160;protected]&lt;/a&gt;&lt;script data-cfhash='f9e31' type=&quot;text/javascript&quot;&gt;\n/* &lt;![CDATA[ */!function(){try{var t=&quot;currentScript&quot;in document?document.currentScript:function(){for(var t=document.getElementsByTagName(&quot;script&quot;),e=t.length;e--;)if(t[e].getAttribute(&quot;data-cfhash&quot;))return t[e]}();if(t&amp;&amp;t.previousSibling){var e,r,n,i,c=t.previousSibling,a=c.getAttribute(&quot;data-cfemail&quot;);if(a){for(e=&quot;&quot;,r=parseInt(a.substr(0,2),16),n=2;a.length-n;n+=2)i=parseInt(a.substr(n,2),16)^r,e+=String.fromCharCode(i);e=document.createTextNode(e),c.parentNode.replaceChild(e,c)}t.parentNode.removeChild(t);}}catch(u){}}()/* ]]&gt; */&lt;/script&gt;\n      Format settings, CABAC : Yes\n      Format settings, ReFrames : 5 frames\n      Muxing mode : Container profile=&lt;a class=&quot;__cf_email__&quot; href=&quot;/cdn-cgi/l/email-protection&quot; data-cfemail=&quot;ca9fa4a1a4a5bda48afee4fb&quot;&gt;[email&amp;#160;protected]&lt;/a&gt;&lt;script data-cfhash='f9e31' type=&quot;text/javascript&quot;&gt;\n/* &lt;![CDATA[ */!function(){try{var t=&quot;currentScript&quot;in document?document.currentScript:function(){for(var t=document.getElementsByTagName(&quot;script&quot;),e=t.length;e--;)if(t[e].getAttribute(&quot;data-cfhash&quot;))return t[e]}();if(t&amp;&amp;t.previousSibling){var e,r,n,i,c=t.previousSibling,a=c.getAttribute(&quot;data-cfemail&quot;);if(a){for(e=&quot;&quot;,r=parseInt(a.substr(0,2),16),n=2;a.length-n;n+=2)i=parseInt(a.substr(n,2),16)^r,e+=String.fromCharCode(i);e=document.createTextNode(e),c.parentNode.replaceChild(e,c)}t.parentNode.removeChild(t);}}catch(u){}}()/* ]]&gt; */&lt;/script&gt;\n      Codec ID : V_MPEG4/ISO/AVC\n      Duration : 1h 49mn\n      Bit rate : 4 946 Kbps\n      Nominal bit rate : 5 057 Kbps\n      Width : 960 pixels\n      Height : 720 pixels\n      Display aspect ratio : 4:3\n      Frame rate : 23.976 fps\n      Resolution : 24 bits\n      Colorimetry : 4:2:0\n      Scan type : Progressive\n      Bits/(Pixel*Frame) : 0.298\n      Stream size : 3.79 GiB (87%)\n      Writing library : x264 core 116 r2074 2641b9e     \n   Audio #2\n      ID : 2\n      Format : AC-3\n      Format/Info : Audio Coding 3\n      Codec ID : A_AC3\n      Duration : 1h 49mn\n      Bit rate mode : Constant\n      Bit rate : 640 Kbps\n      Channel(s) : 1 channel\n      Channel positions : C\n      Sampling rate : 48.0 KHz\n      Stream size : 503 MiB (11%)\n      Language : French\n   Text #3\n      ID : 3\n      Format : UTF-8\n      Codec ID : S_TEXT/UTF8\n      Codec ID/Info : UTF-8 Plain Text\n &lt;a href=&quot;\nhttp://www.imdb.com/title/tt0052708/&quot; rel=&quot;nofollow&quot; target=&quot;_NEW&quot;&gt;\nhttp://www.imdb.com/title/tt0052708/&lt;/a&gt;\n\nFrench audio; English subtitles in the mkv","torrent":{"xt":"urn:btih:3aa1619093eea1ccba9b06e24cfcc4f2f80bb27e","amp;dn":"Les.Cousins.1959.720p.BluRay.x264-CiNEFiLE.mkv","amp;tr":["udp%3A%2F%2Ftracker.openbittorrent.com%3A80","udp%3A%2F%2Fopen.demonii.com%3A1337","udp%3A%2F%2Ftracker.coppersurfer.tk%3A6969","udp%3A%2F%2Fexodus.desync.com%3A6969"],"infoHash":"3aa1619093eea1ccba9b06e24cfcc4f2f80bb27e","infoHashBuffer":{"type":"Buffer","data":[58,161,97,144,147,238,161,204,186,155,6,226,76,252,196,242,248,11,178,126]},"announce":[],"urlList":[]}}